<svg version="1.1" id="Layer_1" xmlns="http://www.w3.org/2000/svg" xmlns:xlink="http://www.w3.org/1999/xlink" x="0px" y="0px"
	 width="100%" viewBox="0 0 1200 523" enable-background="new 0 0 1200 523" xml:space="preserve">
<path fill="#000000" opacity="1.000000" stroke="none" 
	d="
M972.000000,524.000000 
	C648.438538,524.000000 324.877106,524.000000 1.000000,524.000000 
	C1.000000,417.973358 1.000000,311.946381 1.341125,205.292114 
	C2.746798,206.296646 3.964549,207.849869 4.849096,209.574051 
	C8.480209,216.651871 14.594754,220.607224 21.881298,222.811661 
	C26.579023,224.232910 31.514566,224.846191 36.288532,226.041275 
	C53.317764,230.304153 70.395172,234.401535 87.312004,239.076630 
	C97.978378,242.024384 104.922707,254.148392 97.890640,264.854492 
	C91.857597,274.039612 84.957245,282.681580 78.104668,291.296631 
	C61.699028,311.921814 45.077133,332.374908 28.579268,352.926941 
	C19.230165,364.573486 21.311182,383.994934 33.132469,393.550446 
	C37.740257,397.275055 42.503445,400.809875 47.061600,404.592926 
	C59.624443,415.019409 78.268433,413.981903 88.663681,400.907684 
	C93.177490,395.230621 97.861000,389.688782 102.436150,384.060150 
	C113.757767,370.131592 125.271889,356.352539 136.307434,342.200531 
	C145.587906,330.299255 155.463287,330.108643 164.577988,342.117584 
	C169.452362,348.539734 174.534561,354.806274 179.600433,361.080505 
	C189.534470,373.384186 199.812759,385.422302 209.413818,397.979218 
	C220.937363,413.050507 240.214813,416.482880 254.598007,403.956543 
	C258.451843,400.600189 262.208588,396.998535 266.514008,394.319611 
	C279.370483,386.319855 282.227234,364.767700 272.336975,352.797729 
	C266.566559,345.813873 260.957977,338.696075 255.292313,331.625946 
	C243.452911,316.851746 231.525482,302.146454 219.831116,287.258209 
	C213.744919,279.509796 207.519577,271.774414 202.387207,263.401672 
	C197.803787,255.924454 200.699249,246.679672 208.267685,242.031448 
	C211.834885,239.840622 215.881409,238.111450 219.941544,237.096283 
	C239.523224,232.200119 259.191376,227.650879 278.813080,222.913330 
	C291.723877,219.796112 301.162476,207.199493 299.838501,195.920929 
	C298.678009,186.035660 296.758362,176.133987 294.022888,166.568771 
	C291.271423,156.947693 284.210968,150.936584 274.483856,147.981918 
	C266.890930,145.675522 259.834198,148.046677 252.652588,149.682144 
	C233.130310,154.127884 213.625443,158.650421 194.097412,163.070587 
	C188.400146,164.360153 184.090714,162.677948 182.391373,158.795471 
	C180.207321,153.805557 181.851379,149.689697 187.156708,145.919785 
	C192.920334,141.824188 198.864166,137.888855 204.136505,133.214828 
	C214.789246,123.770988 221.163605,111.630333 224.944153,97.990143 
	C230.186218,79.076889 228.680298,60.626904 219.920914,43.242146 
	C209.543655,22.646343 192.807907,9.234941 170.476791,2.971470 
	C169.540527,2.708863 168.820679,1.674711 168.000000,1.000000 
	C512.209839,1.000000 856.419678,1.000000 1201.000000,1.000000 
	C1201.000000,46.359528 1201.000000,91.720062 1200.531372,137.540298 
	C1187.731689,138.000000 1175.400635,137.999481 1163.069580,138.000183 
	C1155.105225,138.000656 1153.776611,139.126175 1150.941040,146.700439 
	C1145.471069,161.312195 1139.768555,175.836761 1134.235596,190.425201 
	C1122.758423,220.686661 1110.848022,250.795578 1100.028809,281.291168 
	C1091.024292,306.671783 1083.408569,332.543182 1074.914429,358.109741 
	C1074.087280,360.599030 1071.407349,362.472656 1069.587402,364.632019 
	C1067.719849,362.537170 1064.955200,360.743469 1064.134033,358.297394 
	C1059.641846,344.915985 1055.992554,331.247650 1051.371826,317.914185 
	C1041.795532,290.282104 1032.063965,262.697174 1021.889465,235.280899 
	C1010.172424,203.707993 997.936890,172.327026 985.777710,140.920349 
	C985.285034,139.647888 983.280334,138.148590 981.962646,138.131821 
	C966.648132,137.936935 951.330200,138.007187 935.755310,138.007187 
	C935.974487,139.447662 935.947754,140.627991 936.340576,141.646439 
	C941.012512,153.756866 945.694397,165.863998 950.474854,177.931885 
	C964.575256,213.527634 978.801086,249.073853 992.827820,284.698517 
	C1008.479065,324.449005 1023.928955,364.278717 1039.556519,404.038605 
	C1042.461914,411.430756 1045.461670,418.523621 1041.754150,426.683472 
	C1037.403442,436.258514 1033.244751,445.958557 1029.700806,455.854340 
	C1022.936768,474.741669 1010.440552,482.817474 990.351746,482.035522 
	C984.417908,481.804565 978.467407,482.000000 972.000000,482.000000 
	C972.000000,496.424744 972.000000,510.212372 972.000000,524.000000 
M390.999603,67.500000 
	C390.999603,181.902893 390.999603,296.305786 390.999603,410.606506 
	C407.796753,410.606506 423.706665,410.606506 440.000366,410.606506 
	C440.000366,408.243500 440.000366,406.265961 440.000366,404.288422 
	C440.000397,360.456757 439.998749,316.625122 440.001984,272.793457 
	C440.002533,265.162750 440.168915,265.003479 447.972290,265.001678 
	C464.971649,264.997772 481.972198,265.128510 498.970001,264.966522 
	C518.250000,264.782806 537.533936,264.547333 556.804199,263.948853 
	C575.212097,263.377167 592.917969,259.520905 609.937073,252.174820 
	C626.732483,244.925247 640.519531,234.226562 651.277954,219.442184 
	C666.149841,199.004822 670.933167,175.419800 671.752502,150.987320 
	C672.164490,138.701950 670.870178,126.178375 668.783936,114.031075 
	C665.339233,93.974525 656.601624,76.135841 642.036072,61.624420 
	C631.000427,50.629761 617.643127,43.249481 603.065125,37.904629 
	C581.989990,30.177687 559.926514,28.427122 537.873413,28.169693 
	C490.714966,27.619213 443.545624,27.998470 396.380768,28.012981 
	C394.764435,28.013479 393.148163,28.186558 390.999603,28.309698 
	C390.999603,41.256721 390.999603,53.878361 390.999603,67.500000 
M873.000000,231.537018 
	C872.999451,234.536057 872.807800,237.550385 873.046326,240.530289 
	C873.351501,244.343063 871.817932,246.116959 868.011475,246.005264 
	C867.015442,245.976044 866.001526,245.977890 865.019836,246.125397 
	C849.914673,248.395065 834.791809,250.558731 819.716675,253.014053 
	C799.957764,256.232208 780.045715,258.845001 760.556274,263.284088 
	C742.628906,267.367371 725.747498,274.968140 712.476257,288.209686 
	C694.852173,305.794281 689.801453,327.571960 692.785522,351.874969 
	C695.500854,373.989746 706.232483,390.946838 724.624451,402.986450 
	C738.587341,412.126770 754.527283,415.856995 770.927979,416.861023 
	C786.815491,417.833679 802.657227,416.295258 817.912842,411.473022 
	C837.782898,405.192200 853.511047,393.227600 865.184509,375.854645 
	C866.422363,374.012421 869.351440,373.306580 871.495911,372.073517 
	C872.330322,374.196960 873.811829,376.298492 873.884705,378.447754 
	C874.166809,386.768585 873.979126,395.104706 874.007263,403.434998 
	C874.029968,410.160187 874.854309,410.991974 881.354370,410.997375 
	C892.017273,411.006287 902.680115,411.010803 913.343018,410.988739 
	C915.107117,410.985077 916.870972,410.836426 918.999878,410.737885 
	C918.999878,408.078888 918.999878,405.937744 918.999878,403.796600 
	C918.999878,346.483551 919.221375,289.168945 918.817200,231.858734 
	C918.734192,220.083878 917.359863,208.087524 914.752441,196.608566 
	C909.143066,171.914032 894.714661,153.446136 871.687927,142.419220 
	C859.431702,136.550034 846.248230,134.105988 832.663757,132.783234 
	C814.196350,130.985001 796.003906,132.253418 777.931458,135.607254 
	C759.689636,138.992538 742.341980,145.200027 726.914185,155.694366 
	C717.720825,161.947891 709.166260,169.140564 699.809937,176.305069 
	C710.477234,187.676956 720.150391,197.989044 728.986938,207.409241 
	C739.901001,199.709488 749.471619,191.309998 760.434082,185.567444 
	C783.109314,173.689331 807.611877,170.540863 832.850342,175.173187 
	C843.231018,177.078491 852.792908,181.414215 859.768555,189.621201 
	C869.736694,201.348953 872.872803,215.527603 873.000000,231.537018 
z"/>
<path fill="#660099" opacity="1.000000" stroke="none" 
	d="
M167.531342,1.000000 
	C168.820679,1.674711 169.540527,2.708863 170.476791,2.971470 
	C192.807907,9.234941 209.543655,22.646343 219.920914,43.242146 
	C228.680298,60.626904 230.186218,79.076889 224.944153,97.990143 
	C221.163605,111.630333 214.789246,123.770988 204.136505,133.214828 
	C198.864166,137.888855 192.920334,141.824188 187.156708,145.919785 
	C181.851379,149.689697 180.207321,153.805557 182.391373,158.795471 
	C184.090714,162.677948 188.400146,164.360153 194.097412,163.070587 
	C213.625443,158.650421 233.130310,154.127884 252.652588,149.682144 
	C259.834198,148.046677 266.890930,145.675522 274.483856,147.981918 
	C284.210968,150.936584 291.271423,156.947693 294.022888,166.568771 
	C296.758362,176.133987 298.678009,186.035660 299.838501,195.920929 
	C301.162476,207.199493 291.723877,219.796112 278.813080,222.913330 
	C259.191376,227.650879 239.523224,232.200119 219.941544,237.096283 
	C215.881409,238.111450 211.834885,239.840622 208.267685,242.031448 
	C200.699249,246.679672 197.803787,255.924454 202.387207,263.401672 
	C207.519577,271.774414 213.744919,279.509796 219.831116,287.258209 
	C231.525482,302.146454 243.452911,316.851746 255.292313,331.625946 
	C260.957977,338.696075 266.566559,345.813873 272.336975,352.797729 
	C282.227234,364.767700 279.370483,386.319855 266.514008,394.319611 
	C262.208588,396.998535 258.451843,400.600189 254.598007,403.956543 
	C240.214813,416.482880 220.937363,413.050507 209.413818,397.979218 
	C199.812759,385.422302 189.534470,373.384186 179.600433,361.080505 
	C174.534561,354.806274 169.452362,348.539734 164.577988,342.117584 
	C155.463287,330.108643 145.587906,330.299255 136.307434,342.200531 
	C125.271889,356.352539 113.757767,370.131592 102.436150,384.060150 
	C97.861000,389.688782 93.177490,395.230621 88.663681,400.907684 
	C78.268433,413.981903 59.624443,415.019409 47.061600,404.592926 
	C42.503445,400.809875 37.740257,397.275055 33.132469,393.550446 
	C21.311182,383.994934 19.230165,364.573486 28.579268,352.926941 
	C45.077133,332.374908 61.699028,311.921814 78.104668,291.296631 
	C84.957245,282.681580 91.857597,274.039612 97.890640,264.854492 
	C104.922707,254.148392 97.978378,242.024384 87.312004,239.076630 
	C70.395172,234.401535 53.317764,230.304153 36.288532,226.041275 
	C31.514566,224.846191 26.579023,224.232910 21.881298,222.811661 
	C14.594754,220.607224 8.480209,216.651871 4.849096,209.574051 
	C3.964549,207.849869 2.746798,206.296646 1.341125,204.832413 
	C1.000000,197.979050 1.000000,190.958099 1.387810,183.573196 
	C3.187859,178.404617 4.796101,173.647568 5.975921,168.786530 
	C9.649618,153.650375 24.909410,144.297165 39.935059,147.853668 
	C62.753227,153.254654 85.614983,158.471939 108.467232,163.728088 
	C112.474648,164.649826 117.484200,161.891708 118.899002,158.159607 
	C120.701790,153.404022 119.102806,149.401398 113.635155,145.898193 
	C98.650352,136.297226 85.912544,124.786110 79.247208,107.648140 
	C71.999039,89.011559 70.351913,70.074463 77.507271,51.272121 
	C87.026146,26.259096 104.977432,9.981318 131.023788,2.933132 
	C131.800049,2.723073 132.346436,1.663496 133.000000,1.000000 
	C144.354233,1.000000 155.708450,1.000000 167.531342,1.000000 
z"/>
<path fill="#660099" opacity="1.000000" stroke="none" 
	d="
M972.468628,524.000000 
	C972.000000,510.212372 972.000000,496.424744 972.000000,482.000000 
	C978.467407,482.000000 984.417908,481.804565 990.351746,482.035522 
	C1010.440552,482.817474 1022.936768,474.741669 1029.700806,455.854340 
	C1033.244751,445.958557 1037.403442,436.258514 1041.754150,426.683472 
	C1045.461670,418.523621 1042.461914,411.430756 1039.556519,404.038605 
	C1023.928955,364.278717 1008.479065,324.449005 992.827820,284.698517 
	C978.801086,249.073853 964.575256,213.527634 950.474854,177.931885 
	C945.694397,165.863998 941.012512,153.756866 936.340576,141.646439 
	C935.947754,140.627991 935.974487,139.447662 935.755310,138.007187 
	C951.330200,138.007187 966.648132,137.936935 981.962646,138.131821 
	C983.280334,138.148590 985.285034,139.647888 985.777710,140.920349 
	C997.936890,172.327026 1010.172424,203.707993 1021.889465,235.280899 
	C1032.063965,262.697174 1041.795532,290.282104 1051.371826,317.914185 
	C1055.992554,331.247650 1059.641846,344.915985 1064.134033,358.297394 
	C1064.955200,360.743469 1067.719849,362.537170 1069.587402,364.632019 
	C1071.407349,362.472656 1074.087280,360.599030 1074.914429,358.109741 
	C1083.408569,332.543182 1091.024292,306.671783 1100.028809,281.291168 
	C1110.848022,250.795578 1122.758423,220.686661 1134.235596,190.425201 
	C1139.768555,175.836761 1145.471069,161.312195 1150.941040,146.700439 
	C1153.776611,139.126175 1155.105225,138.000656 1163.069580,138.000183 
	C1175.400635,137.999481 1187.731689,138.000000 1200.531372,138.000000 
	C1201.000000,139.714355 1201.000000,141.428711 1200.644043,143.425232 
	C1199.531860,144.933655 1198.582275,146.082062 1198.051758,147.399261 
	C1195.353516,154.097168 1192.790283,160.849274 1190.131592,167.563370 
	C1179.128418,195.349869 1168.040283,223.103027 1157.111084,250.918579 
	C1144.744385,282.392853 1132.548096,313.934052 1120.215332,345.421722 
	C1108.179688,376.151031 1096.231079,406.916199 1083.920044,437.535248 
	C1077.067749,454.577942 1070.482422,471.832458 1062.096802,488.126923 
	C1052.206421,507.345001 1035.758057,518.829834 1014.014893,522.096252 
	C1013.264893,522.208923 1012.668152,523.342346 1012.000000,524.000000 
	C998.979126,524.000000 985.958191,524.000000 972.468628,524.000000 
z"/>
<path fill="#000000" opacity="1.000000" stroke="none" 
	d="
M1012.468628,524.000000 
	C1012.668152,523.342346 1013.264893,522.208923 1014.014893,522.096252 
	C1035.758057,518.829834 1052.206421,507.345001 1062.096802,488.126923 
	C1070.482422,471.832458 1077.067749,454.577942 1083.920044,437.535248 
	C1096.231079,406.916199 1108.179688,376.151031 1120.215332,345.421722 
	C1132.548096,313.934052 1144.744385,282.392853 1157.111084,250.918579 
	C1168.040283,223.103027 1179.128418,195.349869 1190.131592,167.563370 
	C1192.790283,160.849274 1195.353516,154.097168 1198.051758,147.399261 
	C1198.582275,146.082062 1199.531860,144.933655 1200.644043,143.853699 
	C1201.000000,270.569244 1201.000000,397.138458 1201.000000,524.000000 
	C1138.312744,524.000000 1075.625000,524.000000 1012.468628,524.000000 
z"/>
<path fill="#000000" opacity="1.000000" stroke="none" 
	d="
M132.531342,1.000000 
	C132.346436,1.663496 131.800049,2.723073 131.023788,2.933132 
	C104.977432,9.981318 87.026146,26.259096 77.507271,51.272121 
	C70.351913,70.074463 71.999039,89.011559 79.247208,107.648140 
	C85.912544,124.786110 98.650352,136.297226 113.635155,145.898193 
	C119.102806,149.401398 120.701790,153.404022 118.899002,158.159607 
	C117.484200,161.891708 112.474648,164.649826 108.467232,163.728088 
	C85.614983,158.471939 62.753227,153.254654 39.935059,147.853668 
	C24.909410,144.297165 9.649618,153.650375 5.975921,168.786530 
	C4.796101,173.647568 3.187859,178.404617 1.387810,183.104614 
	C1.000000,122.417946 1.000000,61.835896 1.000000,1.000000 
	C44.687233,1.000000 88.374962,1.000000 132.531342,1.000000 
z"/>
<path fill="#660099" opacity="1.000000" stroke="none" 
	d="
M390.999603,67.000000 
	C390.999603,53.878361 390.999603,41.256721 390.999603,28.309698 
	C393.148163,28.186558 394.764435,28.013479 396.380768,28.012981 
	C443.545624,27.998470 490.714966,27.619213 537.873413,28.169693 
	C559.926514,28.427122 581.989990,30.177687 603.065125,37.904629 
	C617.643127,43.249481 631.000427,50.629761 642.036072,61.624420 
	C656.601624,76.135841 665.339233,93.974525 668.783936,114.031075 
	C670.870178,126.178375 672.164490,138.701950 671.752502,150.987320 
	C670.933167,175.419800 666.149841,199.004822 651.277954,219.442184 
	C640.519531,234.226562 626.732483,244.925247 609.937073,252.174820 
	C592.917969,259.520905 575.212097,263.377167 556.804199,263.948853 
	C537.533936,264.547333 518.250000,264.782806 498.970001,264.966522 
	C481.972198,265.128510 464.971649,264.997772 447.972290,265.001678 
	C440.168915,265.003479 440.002533,265.162750 440.001984,272.793457 
	C439.998749,316.625122 440.000397,360.456757 440.000366,404.288422 
	C440.000366,406.265961 440.000366,408.243500 440.000366,410.606506 
	C423.706665,410.606506 407.796753,410.606506 390.999603,410.606506 
	C390.999603,296.305786 390.999603,181.902893 390.999603,67.000000 
M440.000397,179.500000 
	C440.000397,194.239410 440.000397,208.978806 440.000397,223.999496 
	C442.869751,223.999496 444.857422,223.999496 446.845093,223.999512 
	C478.166351,223.999680 509.487610,223.978226 540.808838,224.009689 
	C555.103333,224.024033 569.082703,222.059219 582.463257,216.955414 
	C598.085327,210.996628 609.824524,200.818176 616.114746,184.917404 
	C624.412842,163.940903 624.425354,142.440292 619.770081,120.827782 
	C617.003296,107.982704 610.871887,96.638176 600.457886,88.256447 
	C585.150818,75.936638 566.764893,71.646179 547.843994,71.216202 
	C514.207703,70.451813 480.541504,70.984131 446.887878,71.017586 
	C440.970001,71.023468 440.005768,72.083961 440.004364,78.038780 
	C439.996552,111.525856 440.000458,145.012924 440.000397,179.500000 
z"/>
<path fill="#660099" opacity="1.000000" stroke="none" 
	d="
M873.000000,231.049423 
	C872.872803,215.527603 869.736694,201.348953 859.768555,189.621201 
	C852.792908,181.414215 843.231018,177.078491 832.850342,175.173187 
	C807.611877,170.540863 783.109314,173.689331 760.434082,185.567444 
	C749.471619,191.309998 739.901001,199.709488 728.986938,207.409241 
	C720.150391,197.989044 710.477234,187.676956 699.809937,176.305069 
	C709.166260,169.140564 717.720825,161.947891 726.914185,155.694366 
	C742.341980,145.200027 759.689636,138.992538 777.931458,135.607254 
	C796.003906,132.253418 814.196350,130.985001 832.663757,132.783234 
	C846.248230,134.105988 859.431702,136.550034 871.687927,142.419220 
	C894.714661,153.446136 909.143066,171.914032 914.752441,196.608566 
	C917.359863,208.087524 918.734192,220.083878 918.817200,231.858734 
	C919.221375,289.168945 918.999878,346.483551 918.999878,403.796600 
	C918.999878,405.937744 918.999878,408.078888 918.999878,410.737885 
	C916.870972,410.836426 915.107117,410.985077 913.343018,410.988739 
	C902.680115,411.010803 892.017273,411.006287 881.354370,410.997375 
	C874.854309,410.991974 874.029968,410.160187 874.007263,403.434998 
	C873.979126,395.104706 874.166809,386.768585 873.884705,378.447754 
	C873.811829,376.298492 872.330322,374.196960 871.495911,372.073517 
	C869.351440,373.306580 866.422363,374.012421 865.184509,375.854645 
	C853.511047,393.227600 837.782898,405.192200 817.912842,411.473022 
	C802.657227,416.295258 786.815491,417.833679 770.927979,416.861023 
	C754.527283,415.856995 738.587341,412.126770 724.624451,402.986450 
	C706.232483,390.946838 695.500854,373.989746 692.785522,351.874969 
	C689.801453,327.571960 694.852173,305.794281 712.476257,288.209686 
	C725.747498,274.968140 742.628906,267.367371 760.556274,263.284088 
	C780.045715,258.845001 799.957764,256.232208 819.716675,253.014053 
	C834.791809,250.558731 849.914673,248.395065 865.019836,246.125397 
	C866.001526,245.977890 867.015442,245.976044 868.011475,246.005264 
	C871.817932,246.116959 873.351501,244.343063 873.046326,240.530289 
	C872.807800,237.550385 872.999451,234.536057 873.000000,231.049423 
M782.080505,376.556152 
	C798.900269,378.098358 815.565918,377.159576 831.287170,370.709351 
	C851.047729,362.601898 864.805115,348.805878 870.434570,327.409943 
	C874.237427,312.956421 872.581543,298.405243 872.872742,283.880646 
	C872.952087,279.922180 869.791992,278.658966 866.239075,279.052582 
	C861.175110,279.613617 856.130981,280.367401 851.089050,281.111176 
	C833.376160,283.724243 815.674255,286.412994 797.955566,288.985779 
	C784.863342,290.886780 772.220093,294.113983 760.366028,300.231445 
	C740.095215,310.692413 734.040833,334.174011 743.083313,353.098724 
	C750.699219,369.037689 765.024048,374.279144 782.080505,376.556152 
z"/>
<path fill="#000000" opacity="1.000000" stroke="none" 
	d="
M440.000397,179.000000 
	C440.000458,145.012924 439.996552,111.525856 440.004364,78.038780 
	C440.005768,72.083961 440.970001,71.023468 446.887878,71.017586 
	C480.541504,70.984131 514.207703,70.451813 547.843994,71.216202 
	C566.764893,71.646179 585.150818,75.936638 600.457886,88.256447 
	C610.871887,96.638176 617.003296,107.982704 619.770081,120.827782 
	C624.425354,142.440292 624.412842,163.940903 616.114746,184.917404 
	C609.824524,200.818176 598.085327,210.996628 582.463257,216.955414 
	C569.082703,222.059219 555.103333,224.024033 540.808838,224.009689 
	C509.487610,223.978226 478.166351,223.999680 446.845093,223.999512 
	C444.857422,223.999496 442.869751,223.999496 440.000397,223.999496 
	C440.000397,208.978806 440.000397,194.239410 440.000397,179.000000 
z"/>
<path fill="#000000" opacity="1.000000" stroke="none" 
	d="
M781.672058,376.352722 
	C765.024048,374.279144 750.699219,369.037689 743.083313,353.098724 
	C734.040833,334.174011 740.095215,310.692413 760.366028,300.231445 
	C772.220093,294.113983 784.863342,290.886780 797.955566,288.985779 
	C815.674255,286.412994 833.376160,283.724243 851.089050,281.111176 
	C856.130981,280.367401 861.175110,279.613617 866.239075,279.052582 
	C869.791992,278.658966 872.952087,279.922180 872.872742,283.880646 
	C872.581543,298.405243 874.237427,312.956421 870.434570,327.409943 
	C864.805115,348.805878 851.047729,362.601898 831.287170,370.709351 
	C815.565918,377.159576 798.900269,378.098358 781.672058,376.352722 
z"/>
</svg>